# xmcd
#
# Track frame offsets:
#	150
#	15695
#	29105
#	42620
#	64415
#	80129
#	98299
#	114307
#	131801
#	152614
#	167011
#	180891
#	196204
#
# Disc length: 2791 seconds
#
# Revision: 1
# Processed by: cddbd v1.5.2PL0 Copyright (c) Steve Scherf et al.
# Submitted via: audiograbber 1.83.01
#
DISCID=a80ae50d
DTITLE=Various Artist - Country Radio July 2013
DYEAR=2013
DGENRE=Country
TTITLE0=Little bit of everything Keith Urban
TTITLE1=Aw Naw Chris Young
TTITLE2=Wild in your smile Dustin Lynch
TTITLE3=Goodbye Town Lady Antebellum
TTITLE4=Parking lot party Radio edit Lee Brice
TTITLE5=Watch the world end Trace Adkins f Colbie Caillat
TTITLE6=Sunny and 75 Joe Nichols
TTITLE7=If you ever get lonely Love and Theft
TTITLE8=Someone somewhere tonight Kellie Pickler
TTITLE9=You got me Ashley Monroe
TTITLE10=I hope it rains Jana Kramer
TTITLE11=Comeon Kim Richey
TTITLE12=Mama's broken heart stripped version Miranda Lambert
EXTD=
EXTT0=
EXTT1=
EXTT2=
EXTT3=
EXTT4=
EXTT5=
EXTT6=
EXTT7=
EXTT8=
EXTT9=
EXTT10=
EXTT11=
EXTT12=
PLAYORDER=
